# xmcd
#
# Track frame offsets:
#	150
#	10160
#	27823
#	44856
#	61196
#	82059
#	107393
#	125831
#	144317
#	164994
#	183678
#	201959
#	222073
#	249184
#	272285
#	293542
#	310799
#
# Disc length: 4432 seconds
#
# Revision: 1
# Processed by: cddbd v1.5.2PL0 Copyright (c) Steve Scherf et al.
# Submitted via: audiograbber 1.83.01
#
DISCID=f3114e11
DTITLE=High Performance - Live From Breaux Bridge
DYEAR=2009
DGENRE=Cajun
TTITLE0=Aces Rock (Belton'a Theme Song)
TTITLE1=Evangeline Special
TTITLE2=I'd Like To Know
TTITLE3=Please Don't Go
TTITLE4=I'll Always Take Care of You
TTITLE5=Lord, I Need Somebody Bad
TTITLE6=Along the River
TTITLE7=Went to the Dance
TTITLE8=Me For You, You For Me
TTITLE9=Another Place Another Time
TTITLE10=Johnny Can't Dance
TTITLE11=Broken Family Waltz
TTITLE12=Married to One, In Love with Another
TTITLE13=Musician's Paradise
TTITLE14=Triangle Club Special
TTITLE15=Hard to Love Someone
TTITLE16=Between Eunice and Opelousas
EXTD=
EXTT0=
EXTT1=
EXTT2=
EXTT3=
EXTT4=
EXTT5=
EXTT6=
EXTT7=
EXTT8=
EXTT9=
EXTT10=
EXTT11=
EXTT12=
EXTT13=
EXTT14=
EXTT15=
EXTT16=
PLAYORDER=
